<svg width="168" height="44" viewBox="0 0 168 44" fill="none" xmlns="http://www.w3.org/2000/svg">
<path d="M55.0791 16.9141H59.5864C60.5106 16.9141 61.3047 17.0524 61.9688 17.3291C62.6383 17.6058 63.153 18.0153 63.5127 18.5576C63.8724 19.0999 64.0522 19.7668 64.0522 20.5581C64.0522 21.2056 63.9416 21.7617 63.7202 22.2266C63.5044 22.6859 63.1973 23.0705 62.7988 23.3804C62.4059 23.6847 61.9438 23.9282 61.4126 24.1108L60.624 24.5259H56.7061L56.6895 22.5835H59.603C60.0402 22.5835 60.4027 22.506 60.6904 22.3511C60.9782 22.1961 61.194 21.9803 61.3379 21.7036C61.4873 21.4269 61.562 21.106 61.562 20.7407C61.562 20.3534 61.4901 20.0186 61.3462 19.7363C61.2023 19.4541 60.9837 19.2383 60.6904 19.0889C60.3971 18.9395 60.0291 18.8647 59.5864 18.8647H57.5693V29H55.0791V16.9141ZM61.8359 29L59.0801 23.6128L61.7114 23.5962L64.5005 28.8838V29H61.8359ZM72.2617 25.8374C72.2617 25.6216 72.2285 25.4279 72.1621 25.2563C72.1012 25.0793 71.985 24.9188 71.8135 24.7749C71.6419 24.6255 71.4012 24.4788 71.0913 24.335C70.7814 24.1911 70.3802 24.0417 69.8877 23.8867C69.3398 23.7096 68.8197 23.5104 68.3271 23.2891C67.8402 23.0677 67.4085 22.8104 67.0322 22.5171C66.6615 22.2183 66.3682 21.8724 66.1523 21.4795C65.9421 21.0866 65.8369 20.63 65.8369 20.1099C65.8369 19.6063 65.9476 19.1497 66.1689 18.7402C66.3903 18.3252 66.7002 17.971 67.0986 17.6777C67.4971 17.3789 67.9674 17.1493 68.5098 16.9888C69.0576 16.8283 69.658 16.748 70.311 16.748C71.202 16.748 71.9795 16.9085 72.6436 17.2295C73.3076 17.5505 73.8223 17.9904 74.1875 18.5493C74.5583 19.1082 74.7437 19.7474 74.7437 20.4668H72.27C72.27 20.1126 72.1953 19.8027 72.0459 19.5371C71.902 19.266 71.6807 19.0529 71.3818 18.8979C71.0885 18.743 70.7178 18.6655 70.2695 18.6655C69.8379 18.6655 69.4782 18.7319 69.1904 18.8647C68.9027 18.992 68.6868 19.1663 68.543 19.3877C68.3991 19.6035 68.3271 19.847 68.3271 20.1182C68.3271 20.3229 68.377 20.5083 68.4766 20.6743C68.5817 20.8403 68.7367 20.9953 68.9414 21.1392C69.1462 21.283 69.3979 21.4186 69.6968 21.5459C69.9956 21.6732 70.3415 21.7977 70.7344 21.9194C71.3929 22.1187 71.9712 22.3428 72.4692 22.5918C72.9728 22.8408 73.3934 23.1203 73.731 23.4302C74.0685 23.7401 74.3231 24.0915 74.4946 24.4844C74.6662 24.8773 74.752 25.3228 74.752 25.8208C74.752 26.3465 74.6496 26.8169 74.4448 27.2319C74.2401 27.647 73.944 27.9984 73.5566 28.2861C73.1693 28.5739 72.7072 28.7925 72.1704 28.9419C71.6336 29.0913 71.0332 29.166 70.3691 29.166C69.7715 29.166 69.1821 29.0885 68.6011 28.9336C68.02 28.7731 67.4915 28.5324 67.0156 28.2114C66.5452 27.8905 66.1689 27.481 65.8867 26.9829C65.6045 26.4849 65.4634 25.8955 65.4634 25.2148H67.9619C67.9619 25.5911 68.02 25.9093 68.1362 26.1694C68.2524 26.4295 68.4157 26.6398 68.626 26.8003C68.8418 26.9608 69.0964 27.077 69.3896 27.1489C69.6885 27.2209 70.015 27.2568 70.3691 27.2568C70.8008 27.2568 71.1549 27.196 71.4316 27.0742C71.7139 26.9525 71.9214 26.7837 72.0542 26.5679C72.1925 26.3521 72.2617 26.1086 72.2617 25.8374ZM81.0107 22.874V24.75H76.3208V22.874H81.0107ZM88.0664 18.981L84.7793 29H82.1313L86.6221 16.9141H88.3071L88.0664 18.981ZM90.7974 29L87.502 18.981L87.2363 16.9141H88.938L93.4536 29H90.7974ZM90.6479 24.501V26.4517H84.2646V24.501H90.6479ZM96.5498 21.7451V32.4531H94.1592V20.0186H96.3755L96.5498 21.7451ZM102.236 24.4097V24.584C102.236 25.237 102.158 25.8429 102.003 26.4019C101.854 26.9608 101.633 27.4478 101.339 27.8628C101.046 28.2723 100.681 28.5933 100.244 28.8257C99.812 29.0526 99.314 29.166 98.7495 29.166C98.2017 29.166 97.7257 29.0553 97.3218 28.834C96.9178 28.6126 96.5775 28.3027 96.3008 27.9043C96.0296 27.5003 95.811 27.0327 95.645 26.5015C95.479 25.9702 95.3517 25.4002 95.2632 24.7915V24.335C95.3517 23.682 95.479 23.0843 95.645 22.542C95.811 21.9941 96.0296 21.521 96.3008 21.1226C96.5775 20.7186 96.915 20.4059 97.3135 20.1846C97.7174 19.9632 98.1906 19.8525 98.7329 19.8525C99.3029 19.8525 99.8037 19.9604 100.235 20.1763C100.673 20.3921 101.038 20.702 101.331 21.106C101.63 21.5099 101.854 21.9914 102.003 22.5503C102.158 23.1092 102.236 23.729 102.236 24.4097ZM99.8369 24.584V24.4097C99.8369 24.0278 99.8037 23.6764 99.7373 23.3555C99.6764 23.029 99.5768 22.744 99.4385 22.5005C99.3057 22.257 99.1286 22.0688 98.9072 21.936C98.6914 21.7977 98.4285 21.7285 98.1187 21.7285C97.7922 21.7285 97.5127 21.7811 97.2803 21.8862C97.0534 21.9914 96.868 22.1436 96.7241 22.3428C96.5802 22.542 96.4723 22.7799 96.4004 23.0566C96.3285 23.3333 96.2842 23.646 96.2676 23.9946V25.1484C96.2952 25.5579 96.3727 25.9259 96.5 26.2524C96.6273 26.5734 96.8237 26.828 97.0894 27.0161C97.355 27.2043 97.7036 27.2983 98.1353 27.2983C98.4507 27.2983 98.7163 27.2292 98.9321 27.0908C99.1479 26.9469 99.3223 26.7505 99.4551 26.5015C99.5934 26.2524 99.6903 25.9647 99.7456 25.6382C99.8065 25.3117 99.8369 24.9603 99.8369 24.584ZM106.112 21.7451V32.4531H103.722V20.0186H105.938L106.112 21.7451ZM111.798 24.4097V24.584C111.798 25.237 111.721 25.8429 111.566 26.4019C111.417 26.9608 111.195 27.4478 110.902 27.8628C110.609 28.2723 110.243 28.5933 109.806 28.8257C109.375 29.0526 108.876 29.166 108.312 29.166C107.764 29.166 107.288 29.0553 106.884 28.834C106.48 28.6126 106.14 28.3027 105.863 27.9043C105.592 27.5003 105.374 27.0327 105.208 26.5015C105.042 25.9702 104.914 25.4002 104.826 24.7915V24.335C104.914 23.682 105.042 23.0843 105.208 22.542C105.374 21.9941 105.592 21.521 105.863 21.1226C106.14 20.7186 106.478 20.4059 106.876 20.1846C107.28 19.9632 107.753 19.8525 108.295 19.8525C108.865 19.8525 109.366 19.9604 109.798 20.1763C110.235 20.3921 110.6 20.702 110.894 21.106C111.192 21.5099 111.417 21.9914 111.566 22.5503C111.721 23.1092 111.798 23.729 111.798 24.4097ZM109.399 24.584V24.4097C109.399 24.0278 109.366 23.6764 109.3 23.3555C109.239 23.029 109.139 22.744 109.001 22.5005C108.868 22.257 108.691 22.0688 108.47 21.936C108.254 21.7977 107.991 21.7285 107.681 21.7285C107.355 21.7285 107.075 21.7811 106.843 21.8862C106.616 21.9914 106.431 22.1436 106.287 22.3428C106.143 22.542 106.035 22.7799 105.963 23.0566C105.891 23.3333 105.847 23.646 105.83 23.9946V25.1484C105.858 25.5579 105.935 25.9259 106.062 26.2524C106.19 26.5734 106.386 26.828 106.652 27.0161C106.917 27.2043 107.266 27.2983 107.698 27.2983C108.013 27.2983 108.279 27.2292 108.495 27.0908C108.71 26.9469 108.885 26.7505 109.018 26.5015C109.156 26.2524 109.253 25.9647 109.308 25.6382C109.369 25.3117 109.399 24.9603 109.399 24.584Z" fill="white"/>
<path d="M21.6154 41.3015C10.9809 41.3015 2.32861 32.6482 2.32861 22.0125C2.32861 11.3718 10.9809 2.71851 21.6154 2.71851C32.2548 2.71851 40.9071 11.3718 40.9071 22.0125C40.9071 32.6482 32.2498 41.3015 21.6154 41.3015ZM21.6154 0.461548C9.71779 0.461548 0.0769043 10.1035 0.0769043 22.0025C0.0769043 33.8965 9.71779 43.5385 21.6154 43.5385C33.508 43.5385 43.1538 33.8965 43.1538 22.0025C43.1488 10.1035 33.508 0.461548 21.6154 0.461548ZM26.3534 29.5773C28.1109 31.5047 27.8712 35.0899 27.2821 36.7526C27.2521 36.8375 27.2022 37.0073 26.9975 37.0722C25.989 37.4467 24.8157 37.7013 24.1766 37.7962C26.9276 35.3146 27.337 31.7244 26.3534 29.5773ZM36.4387 27.3503C34.0422 25.2781 31.1514 23.885 28.4504 23.3757C31.2563 24.604 33.9473 27.4951 35.3103 30.2714C35.5949 29.812 36.1541 28.8183 36.5635 27.7148C36.6134 27.5351 36.5086 27.4152 36.4387 27.3503ZM37.607 22.0325C37.607 21.8577 37.5221 21.8078 37.4821 21.7928C35.8196 21.1137 34.7561 20.879 34.7561 20.879C35.2204 20.6743 35.53 20.16 35.5949 19.8804C34.5764 20.4296 33.2933 20.5994 32.5294 20.5395C34.0721 21.1686 36.1241 22.2472 37.547 23.4356C37.592 22.9063 37.607 22.367 37.607 22.0325ZM28.8897 27.7747C29.4789 27.9345 30.3226 28.0494 30.8718 27.7947C28.2307 27.1156 26.7578 23.4106 20.7716 22.8813C20.477 22.8564 19.8829 22.9313 20.2574 22.367C20.6268 21.7928 22.9684 20.17 22.9684 20.17C22.519 20.17 20.507 20.3447 19.9029 20.4296C19.3038 20.5145 19.154 20.3148 19.129 19.9153C19.129 19.9153 17.9158 21.0538 18.4949 21.633C18.5848 21.7179 18.8444 21.7479 19.154 21.603C19.4336 21.4782 19.9478 21.3084 20.2224 21.2535C20.2623 21.2435 20.3073 21.2685 20.2723 21.3234C20.1375 21.5431 19.793 22.1074 19.6982 22.377C19.5883 22.7265 19.5584 22.9013 20.1026 23.0661C20.6418 23.2408 23.3928 24.0997 25.0903 25.2481C26.7678 26.3966 30.762 29.5074 30.5473 35.2896C31.5109 34.6455 32.3097 33.9314 32.804 33.4471C32.9238 33.3322 32.8988 33.1475 32.8739 33.0776C32.2947 31.3599 30.6821 28.8882 28.8897 27.7747ZM35.1256 15.6611C34.871 16.5349 34.3018 16.9793 33.9623 17.0742C33.4081 17.2339 32.9288 17.0492 32.9288 17.0492C32.794 17.194 32.6442 17.3538 32.5194 17.4686C32.2997 17.6733 32.2099 17.5235 32.2248 17.3987C32.2398 17.2689 32.2648 17.1391 32.1749 16.9843C32.0301 16.7396 31.8504 16.9793 31.6107 17.0592C31.3811 17.1341 31.3112 16.8295 31.3112 16.8295C30.0131 16.5698 29.404 17.2289 29.404 17.2289C30.3476 17.3588 30.7919 17.958 30.8668 18.2626C30.9217 18.4922 31.5009 18.4922 31.7555 18.3125C31.8204 18.2675 31.9952 18.1727 31.9802 18.4074C31.9752 18.4972 31.9502 18.6321 31.9003 18.8118C32.3447 19.0515 32.4745 19.1014 32.3347 19.3461C31.8304 20.2299 31.3861 20.0901 31.2662 20.0501C29.404 19.3711 27.6465 19.0814 26.5481 19.0365C26.6929 18.8318 27.1523 18.4423 27.1523 18.4423C19.5933 18.4423 18.3202 19.3561 17.9208 19.8504C17.6562 20.185 17.8858 20.7092 17.8858 20.7092C16.9822 20.884 14.7404 21.2835 13.7069 22.1923C12.7783 23.0111 12.7084 24.8337 12.6735 25.5028C13.0928 25.0883 13.6071 24.7488 14.0864 24.5191C15.1049 24.0348 16.2932 24.1246 17.8309 24.1796C18.475 24.1995 18.8095 24.4542 18.9992 24.8337C19.1939 25.2132 18.7296 25.1682 18.465 24.9985C17.1719 24.1596 16.6976 25.7075 15.2996 25.2981C15.729 25.8323 16.3381 25.8274 16.6726 25.7025C18.0656 25.1732 18.4051 25.7325 18.48 25.8673C17.5763 25.8174 16.1634 26.3666 15.4694 26.5164C14.6106 26.7062 13.7968 26.7311 13.7968 26.7311C14.361 27.4152 15.1798 27.4152 15.7739 27.4152C16.378 27.4152 18.3152 27.2604 19.4735 27.3753C22.4442 27.6749 22.6239 30.4112 20.8914 32.0989C22.2994 31.7144 22.8635 30.3612 22.8635 30.3612C23.882 34.99 19.6383 37.4367 16.1783 36.7177C14.4958 36.3681 13.1627 35.6391 12.2091 34.955C11.4602 34.4158 10.8661 33.8615 10.6714 33.6818C12.958 34.271 16.413 34.3009 18.7795 33.2174C14.2262 33.2773 11.1357 32.1089 9.00383 30.9604C8.1351 30.4911 7.9354 30.3213 7.62585 29.777C6.95184 28.5786 6.51248 27.4901 6.0881 25.8923C7.84553 27.4302 11.605 29.4874 13.4423 29.6572C8.72424 26.9159 6.40264 22.9013 6.16299 22.4569C5.96329 22.0874 5.6138 21.6979 5.65873 20.8191C5.71864 19.6507 6.07812 17.913 6.5025 16.7446C7.06168 18.3524 8.46962 21.2635 10.1322 22.6416C8.46462 19.0964 8.21 14.5276 8.23995 13.7436C8.25493 13.3891 8.31983 13.0945 8.62938 12.6601C9.04377 12.0709 10.0074 10.9125 10.9909 10.0536C10.7812 11.3169 10.4567 13.8735 10.926 16.3351C11.5701 12.4803 13.0479 9.51934 14.0664 8.20611C14.2761 7.93647 14.4159 7.73674 14.8003 7.547C15.2547 7.31231 16.5328 6.75806 18.0506 6.41852C16.7475 7.31231 15.6741 9.08492 15.3296 10.0386C19.7631 5.7644 24.0218 5.79935 26.5182 4.67587C27.0125 4.45616 27.2871 4.88059 27.2571 5.19517C27.2122 5.59962 27.0424 6.26872 27.0424 6.26872C28.5702 6.63822 29.2192 7.38721 29.2192 7.38721C29.1693 7.18748 29.1943 6.84294 29.1943 6.84294C31.2812 8.70044 31.9752 10.1235 31.9103 11.287C31.8554 12.3355 32.6592 12.9098 33.0886 13.1444C33.5129 13.3741 35.2055 14.4377 35.525 14.7073C35.7746 14.9221 35.4052 15.4064 35.1256 15.6611ZM25.6445 6.02405C25.0453 6.41852 24.3813 6.98775 23.9519 7.93148C23.8771 8.08627 24.0019 8.26103 24.2365 8.12622C24.7508 7.83661 25.3799 7.68681 25.3799 7.68681C25.2301 7.20246 25.8192 6.39854 26.0988 6.064C26.1887 5.96413 26.1088 5.74443 25.6445 6.02405ZM30.8219 10.533C30.6721 11.6614 30.4275 11.6115 30.1629 11.5216C29.6786 11.3569 28.8148 11.252 28.4803 11.3868C29.399 12.1907 30.0131 13.4041 30.0131 13.4041C30.0979 13.0046 29.8833 12.3905 29.7884 12.1807C29.7135 12.021 29.7984 12.0459 29.9881 12.0909C30.1079 12.1208 30.3775 12.1957 30.5173 12.2457C30.8568 12.3655 30.8968 12.2057 30.9367 11.9461C30.9866 11.6515 31.0166 11.2021 30.8219 10.533ZM19.9129 15.676C20.1275 15.5762 20.6967 15.3115 21.0762 15.2017C21.0762 15.2017 20.7466 16.3351 20.8066 18.1827C21.4456 18.0828 22.0997 18.0179 22.8685 17.9929C21.7302 17.5735 21.7951 15.4114 22.564 14.3079C22.7886 13.9883 22.529 13.9534 22.2395 14.0482C21.855 14.1681 21.6154 14.253 21.2409 14.3978C21.2409 14.3978 21.4157 11.5266 23.922 9.26468C21.5555 10.2683 19.7681 13.6488 19.9129 15.676Z" fill="white"/>
</svg>
