<?xml version="1.0" encoding="UTF-8" standalone="no"?>
<svg
   width="64pt"
   height="64pt"
   viewBox="0 0 22.577778 22.577778"
   version="1.1"
   id="svg831"
   inkscape:version="1.1.1 (1:1.1+202109281949+c3084ef5ed)"
   sodipodi:docname="01 - Apple Juice.svg"
   inkscape:export-filename="/media/taufikramadhan/Data/Tr Design Studio/Project Design/TR Creative Design/Icon Design/Project Hiring/Icon Icons/013 - Drinks And Restaurants/Send/3 - Flat/01 - Apple Juice.png"
   inkscape:export-xdpi="576"
   inkscape:export-ydpi="576"
   xmlns:inkscape="http://www.inkscape.org/namespaces/inkscape"
   xmlns:sodipodi="http://sodipodi.sourceforge.net/DTD/sodipodi-0.dtd"
   xmlns="http://www.w3.org/2000/svg"
   xmlns:svg="http://www.w3.org/2000/svg"
   xmlns:rdf="http://www.w3.org/1999/02/22-rdf-syntax-ns#"
   xmlns:cc="http://creativecommons.org/ns#"
   xmlns:dc="http://purl.org/dc/elements/1.1/">
  <defs
     id="defs825">
    <pattern
       id="EMFhbasepattern"
       patternUnits="userSpaceOnUse"
       width="6"
       height="6"
       x="0"
       y="0" />
    <pattern
       id="EMFhbasepattern-9"
       patternUnits="userSpaceOnUse"
       width="6"
       height="6"
       x="0"
       y="0" />
    <pattern
       id="EMFhbasepattern-0"
       patternUnits="userSpaceOnUse"
       width="6"
       height="6"
       x="0"
       y="0" />
    <pattern
       id="EMFhbasepattern-7"
       patternUnits="userSpaceOnUse"
       width="6"
       height="6"
       x="0"
       y="0" />
    <pattern
       id="EMFhbasepattern-2"
       patternUnits="userSpaceOnUse"
       width="6"
       height="6"
       x="0"
       y="0" />
    <pattern
       id="EMFhbasepattern-98"
       patternUnits="userSpaceOnUse"
       width="6"
       height="6"
       x="0"
       y="0" />
    <pattern
       id="EMFhbasepattern-6"
       patternUnits="userSpaceOnUse"
       width="6"
       height="6"
       x="0"
       y="0" />
    <pattern
       id="EMFhbasepattern-01"
       patternUnits="userSpaceOnUse"
       width="6"
       height="6"
       x="0"
       y="0" />
    <pattern
       id="EMFhbasepattern-07"
       patternUnits="userSpaceOnUse"
       width="6"
       height="6"
       x="0"
       y="0" />
    <pattern
       id="EMFhbasepattern-8"
       patternUnits="userSpaceOnUse"
       width="6"
       height="6"
       x="0"
       y="0" />
    <pattern
       id="EMFhbasepattern-4"
       patternUnits="userSpaceOnUse"
       width="6"
       height="6"
       x="0"
       y="0" />
    <pattern
       id="EMFhbasepattern-40"
       patternUnits="userSpaceOnUse"
       width="6"
       height="6"
       x="0"
       y="0" />
    <pattern
       id="EMFhbasepattern-08"
       patternUnits="userSpaceOnUse"
       width="6"
       height="6"
       x="0"
       y="0" />
    <pattern
       id="EMFhbasepattern-04"
       patternUnits="userSpaceOnUse"
       width="6"
       height="6"
       x="0"
       y="0" />
    <pattern
       id="EMFhbasepattern-014"
       patternUnits="userSpaceOnUse"
       width="6"
       height="6"
       x="0"
       y="0" />
    <pattern
       id="EMFhbasepattern-27"
       patternUnits="userSpaceOnUse"
       width="6"
       height="6"
       x="0"
       y="0" />
    <pattern
       id="EMFhbasepattern-09"
       patternUnits="userSpaceOnUse"
       width="6"
       height="6"
       x="0"
       y="0" />
    <pattern
       id="EMFhbasepattern-5"
       patternUnits="userSpaceOnUse"
       width="6"
       height="6"
       x="0"
       y="0" />
    <pattern
       id="EMFhbasepattern-018"
       patternUnits="userSpaceOnUse"
       width="6"
       height="6"
       x="0"
       y="0" />
  </defs>
  <sodipodi:namedview
     id="base"
     pagecolor="#ffffff"
     bordercolor="#666666"
     borderopacity="1.0"
     inkscape:pageopacity="0.0"
     inkscape:pageshadow="2"
     inkscape:zoom="4.6959028"
     inkscape:cx="42.590319"
     inkscape:cy="42.590319"
     inkscape:document-units="pt"
     inkscape:current-layer="layer1"
     showgrid="false"
     units="pt"
     inkscape:window-width="1366"
     inkscape:window-height="705"
     inkscape:window-x="0"
     inkscape:window-y="31"
     inkscape:window-maximized="1"
     inkscape:pagecheckerboard="true"
     inkscape:showpageshadow="false"
     inkscape:object-paths="true"
     inkscape:snap-intersection-paths="true"
     inkscape:snap-smooth-nodes="true"
     inkscape:snap-midpoints="true"
     showguides="true"
     inkscape:snap-bbox="true"
     inkscape:bbox-nodes="true"
     inkscape:snap-nodes="false"
     inkscape:snap-global="true"
     inkscape:document-rotation="0">
    <inkscape:grid
       type="xygrid"
       id="grid1378" />
    <sodipodi:guide
       position="0.97013831,21.607643"
       orientation="78.000048,0"
       id="guide1380"
       inkscape:locked="false" />
    <sodipodi:guide
       position="0.97013831,0.97013129"
       orientation="0,78.000005"
       id="guide1382"
       inkscape:locked="false" />
    <sodipodi:guide
       position="21.607639,0.97013129"
       orientation="-78.000048,0"
       id="guide1384"
       inkscape:locked="false" />
    <sodipodi:guide
       position="21.607639,21.607643"
       orientation="0,-78.000005"
       id="guide1386"
       inkscape:locked="false" />
  </sodipodi:namedview>
  <metadata
     id="metadata828">
    <rdf:RDF>
      <cc:Work
         rdf:about="">
        <dc:format>image/svg+xml</dc:format>
        <dc:type
           rdf:resource="http://purl.org/dc/dcmitype/StillImage" />
      </cc:Work>
    </rdf:RDF>
  </metadata>
  <g
     inkscape:label="Icon"
     inkscape:groupmode="layer"
     id="layer1"
     transform="translate(0,-274.42223)">
    <g
       id="g51307"
       style="display:inline;stroke-width:0.794878"
       transform="matrix(1.258055,0,0,1.258055,77.385851,-38.905153)">
      <g
         id="g49955"
         style="stroke-width:0.794878">
        <path
           style="color:#000000;fill:#d0e2ee;stroke-width:0.794878;stroke-linecap:round;stroke-linejoin:round;-inkscape-stroke:none"
           d="m -48.375,249.82812 a 0.26460996,0.26460996 0 0 0 -0.1875,0.0801 l -1.496094,1.52735 a 0.26460996,0.26460996 0 0 0 -0.07617,0.18359 v 2.44336 a 0.26460996,0.26460996 0 0 0 0.265625,0.26367 h 1.056641 a 0.26460996,0.26460996 0 0 0 0.265625,-0.26367 v -1.92383 l 1.109375,-1.11133 a 0.26460996,0.26460996 0 0 0 0,-0.37304 l -0.748047,-0.74805 a 0.26460996,0.26460996 0 0 0 -0.189453,-0.0781 z"
           id="path131765" />
        <path
           style="color:#000000;fill:#d0e2ee;stroke-width:0.794878;stroke-linecap:round;stroke-linejoin:round;-inkscape-stroke:none"
           d="m -52.648437,253.79687 c -0.435238,0 -0.792969,0.35969 -0.792969,0.79493 v 10.84765 c 0,0.43524 0.357731,0.79297 0.792969,0.79297 h 6.615234 c 0.435237,0 0.792969,-0.35773 0.792969,-0.79297 V 254.5918 c 0,-0.43524 -0.357732,-0.79493 -0.792969,-0.79493 z"
           id="path131771" />
        <path
           id="path32845"
           style="color:#000000;fill:#a8c2e1;fill-opacity:1;stroke-width:0.794878;stroke-linecap:round;stroke-linejoin:round;-inkscape-stroke:none"
           d="m -52.648468,253.79695 c -0.435237,0 -0.792715,0.35954 -0.792715,0.79478 v 0.26355 h 6.349481 c 0.43524,0 0.793234,0.35954 0.793234,0.79478 v 10.5823 h 0.2651 c 0.435239,0 0.793234,-0.35747 0.793234,-0.79271 v -10.84792 c 0,-0.43524 -0.357995,-0.79478 -0.793234,-0.79478 z" />
        <path
           id="path14721"
           style="color:#000000;fill:#a8c2e1;fill-opacity:1;stroke-width:3.00426;stroke-linecap:round;stroke-linejoin:round;-inkscape-stroke:none"
           d="m -201.98242,-83.691406 v 28.408203 c 0,1.645001 1.3511,2.996094 2.99609,2.996094 h 1.30078 c 1.42188,-1.367668 2.52951,-3.024791 3.43946,-4.783203 1.99934,-3.863623 3.14453,-8.488509 3.14453,-12.888672 0,-4.428019 -1.3425,-8.148207 -3.94336,-10.59375 -1.98222,-1.863869 -4.44115,-2.800596 -6.9375,-3.138672 z"
           transform="matrix(0.26458334,0,0,0.26458334,0,280.06666)" />
        <path
           id="path131777"
           style="color:#000000;fill:#dc1c4b;stroke-width:3.00426;stroke-linecap:round;stroke-linejoin:round;-inkscape-stroke:none"
           d="m -180.98242,-99.287109 c 1.6e-4,1.291451 7.5e-4,2.442478 0,2.708984 a 1.0001006,1.0001006 0 0 0 0,0.0078 c 0,4.011968 3.27517,7.285156 7.28711,7.285156 0.26646,-7.35e-4 1.41714,-1.64e-4 2.70898,0 v -6.998047 c 0,-1.645002 -1.35305,-3.003906 -2.99805,-3.003906 z"
           transform="matrix(0.26458334,0,0,0.26458334,0,280.06666)" />
        <path
           style="color:#000000;fill:#143441;stroke-width:0.794878;stroke-linecap:round;stroke-linejoin:round;-inkscape-stroke:none"
           d="m -52.119141,254.85547 a 0.2645835,0.2645835 0 0 0 -0.263671,0.26367 0.2645835,0.2645835 0 0 0 0.263671,0.26563 h 0.792969 a 0.2645835,0.2645835 0 0 0 0.265625,-0.26563 0.2645835,0.2645835 0 0 0 -0.265625,-0.26367 z"
           id="path131783" />
        <path
           style="color:#000000;fill:#143441;stroke-width:0.794878;stroke-linecap:round;stroke-linejoin:round;-inkscape-stroke:none"
           d="m -52.119141,255.91406 a 0.2645835,0.2645835 0 0 0 -0.263671,0.26367 0.2645835,0.2645835 0 0 0 0.263671,0.26563 h 0.265625 a 0.2645835,0.2645835 0 0 0 0.263672,-0.26563 0.2645835,0.2645835 0 0 0 -0.263672,-0.26367 z"
           id="path131789" />
        <path
           id="path131795"
           style="color:#000000;fill:#50b86b;stroke-width:3.00426;stroke-linecap:round;stroke-linejoin:round;-inkscape-stroke:none"
           d="m -175.98438,-78.285156 c -6.08101,0 -11.23041,3.51114 -14.3789,8.185547 -3.05938,-2.614413 -7.00911,-4.248343 -10.88086,-3.210938 a 1.0001006,1.0001006 0 0 0 -0.0156,0.0078 l -0.72265,0.205078 v 17.814453 c 0,1.645001 1.3511,2.996094 2.99609,2.996094 h 25.00195 c 1.645,0 2.99805,-1.351093 2.99805,-2.996094 v -22.333985 l -0.7539,-0.144531 c -1.38768,-0.347716 -2.81405,-0.522757 -4.24415,-0.523437 z"
           transform="matrix(0.26458334,0,0,0.26458334,0,280.06666)" />
        <path
           style="color:#000000;fill:#bd887f;stroke-width:0.794878;stroke-linecap:round;stroke-linejoin:round;-inkscape-stroke:none"
           d="m -49.185547,255.55078 c -0.485412,0.38861 -0.417969,1.01563 -0.417969,1.01563 a 0.2645835,0.2645835 0 0 0 0.285157,0.24023 0.2645835,0.2645835 0 0 0 0.240234,-0.28516 c 0,0 -0.0163,-0.36377 0.224609,-0.55664 a 0.2645835,0.2645835 0 0 0 0.04102,-0.37304 0.2645835,0.2645835 0 0 0 -0.373047,-0.041 z"
           id="path131801" />
        <path
           style="color:#000000;fill:#dc1c4b;stroke-width:0.794878;stroke-linecap:round;stroke-linejoin:round;-inkscape-stroke:none"
           d="m -49.740234,256.08789 c -0.314914,-0.0787 -0.768792,-0.073 -1.111328,0.26953 a 0.26460996,0.26460996 0 0 0 -0.02344,0.0254 c -0.108189,0.14189 -0.298888,0.46107 -0.339844,0.91211 -0.04089,0.45036 0.09847,1.02297 0.626953,1.55078 h 0.002 c 0.270741,0.27509 0.645444,0.26573 0.90625,0.21094 0.19189,-0.0403 0.268472,-0.0852 0.339843,-0.11914 0.07191,0.0341 0.146982,0.079 0.337891,0.11914 0.260806,0.0548 0.635508,0.0641 0.90625,-0.21094 5.53e-4,-5.6e-4 0.0014,5.7e-4 0.002,0 0.528488,-0.52781 0.667847,-1.10042 0.626953,-1.55078 -0.04096,-0.45104 -0.231655,-0.77023 -0.339844,-0.91211 a 0.26460996,0.26460996 0 0 0 -0.02344,-0.0254 c -0.342536,-0.34254 -0.796415,-0.34826 -1.111328,-0.26953 -0.229373,0.0573 -0.315023,0.12261 -0.398438,0.17188 -0.08292,-0.0491 -0.17007,-0.1143 -0.40039,-0.17188 z"
           id="path131807" />
        <path
           style="color:#000000;fill:#143441;stroke-width:0.794878;stroke-linecap:round;stroke-linejoin:round;-inkscape-stroke:none"
           d="m -48.679687,261.26562 a 0.2645835,0.2645835 0 0 0 -0.263672,0.26563 0.2645835,0.2645835 0 0 0 0.263672,0.26367 h 2.117187 a 0.2645835,0.2645835 0 0 0 0.263672,-0.26367 0.2645835,0.2645835 0 0 0 -0.263672,-0.26563 z"
           id="path131813" />
        <path
           style="color:#000000;fill:#143441;stroke-width:0.794878;stroke-linecap:round;stroke-linejoin:round;-inkscape-stroke:none"
           d="m -47.621094,262.32422 a 0.2645835,0.2645835 0 0 0 -0.263672,0.26367 0.2645835,0.2645835 0 0 0 0.263672,0.26563 h 1.058594 a 0.2645835,0.2645835 0 0 0 0.263672,-0.26563 0.2645835,0.2645835 0 0 0 -0.263672,-0.26367 z"
           id="path131819" />
        <path
           id="path131825"
           style="color:#000000;fill:#d0e2ee;stroke-width:3.00426;stroke-linecap:round;stroke-linejoin:round;-inkscape-stroke:none"
           d="m -201.98242,-58.289062 v 3.005859 c 0,1.645001 1.3511,2.996094 2.99609,2.996094 h 25.00195 c 1.645,0 2.99805,-1.351093 2.99805,-2.996094 v -3.005859 z"
           transform="matrix(0.26458334,0,0,0.26458334,0,280.06666)" />
        <path
           id="path45230"
           style="color:#000000;fill:#a8c2e1;fill-opacity:1;stroke-width:0.794878;stroke-linecap:round;stroke-linejoin:round;-inkscape-stroke:none"
           d="m -48.374825,249.82819 a 0.26460996,0.26460996 0 0 0 -0.187587,0.0801 l -0.07441,0.076 0.670242,0.67024 a 0.26460996,0.26460996 0 0 1 0,0.3731 l -1.109493,1.11105 v 1.92391 a 0.26460996,0.26460996 0 0 1 -0.265615,0.26355 h 0.529167 a 0.26460996,0.26460996 0 0 0 0.265615,-0.26355 v -1.92391 l 1.109493,-1.11105 a 0.26460996,0.26460996 0 0 0 0,-0.3731 l -0.748273,-0.74827 a 0.26460996,0.26460996 0 0 0 -0.189135,-0.078 z" />
        <path
           id="path131831"
           style="color:#000000;fill:#91a9d9;stroke-width:3.00426;stroke-linecap:round;stroke-linejoin:round;-inkscape-stroke:none"
           d="m -188.52344,-108.90039 -0.67383,0.6875 a 1.0001006,1.0001006 0 0 0 -0.28906,0.69531 v 0.36719 l 6.00195,2.88867 v -1.29297 l 0.61915,-0.62109 z"
           transform="matrix(0.26458334,0,0,0.26458334,0,280.06666)" />
        <path
           style="color:#000000;fill:#143441;stroke-width:0.794878;stroke-linecap:round;stroke-linejoin:round;-inkscape-stroke:none"
           d="m -50.001953,263.32227 a 0.2645835,0.2645835 0 0 0 -0.265625,0.26367 0.2645835,0.2645835 0 0 0 0.265625,0.26562 h 3.439453 a 0.2645835,0.2645835 0 0 0 0.263672,-0.26562 0.2645835,0.2645835 0 0 0 -0.263672,-0.26367 z"
           id="path131849" />
        <path
           id="path14726"
           style="fill:#349951;fill-opacity:1;stroke-width:3.00426;stroke-linecap:round;stroke-linejoin:round"
           d="m -199.06445,-73.623047 c -0.72506,0.01783 -1.45374,0.117987 -2.17969,0.3125 a 1.0001006,1.0001006 0 0 0 -0.0156,0.0078 l -0.72265,0.205078 v 17.814453 c 0,1.645001 1.3511,2.996094 2.99609,2.996094 h 1.30078 c 1.42188,-1.367668 2.52951,-3.024791 3.43946,-4.783203 1.99934,-3.863623 3.14453,-8.488509 3.14453,-12.888672 0,-0.250271 -0.005,-0.4985 -0.0137,-0.744141 -2.34113,-1.792873 -5.11606,-2.989597 -7.94922,-2.919922 z"
           transform="matrix(0.26458334,0,0,0.26458334,0,280.06666)" />
        <path
           id="path35153"
           style="color:#000000;fill:#b01d47;fill-opacity:1;stroke-width:3.00426;stroke-linecap:round;stroke-linejoin:round;-inkscape-stroke:none"
           d="m -180.98242,-99.287109 c 1.6e-4,1.291451 7.5e-4,2.442478 0,2.708984 a 1.0001006,1.0001006 0 0 0 0,0.0078 c 0,0.437753 0.0405,0.866332 0.11523,1.283203 h 2.88281 c 1.64501,0 2.99805,1.358904 2.99805,3.003906 v 2.880859 c 0.4194,0.07557 0.85049,0.117188 1.29102,0.117188 0.26646,-7.35e-4 1.41714,-1.64e-4 2.70898,0 v -6.998047 c 0,-0.205625 -0.0203,-0.406973 -0.0605,-0.601563 -0.0201,-0.09729 -0.0448,-0.193359 -0.0742,-0.287109 -0.0294,-0.09375 -0.0634,-0.18571 -0.10157,-0.275391 -0.0381,-0.08968 -0.0806,-0.17663 -0.12695,-0.261718 -0.27826,-0.510535 -0.70135,-0.933685 -1.21094,-1.212891 -0.0849,-0.04653 -0.17217,-0.08868 -0.26172,-0.126953 -0.0895,-0.03827 -0.18175,-0.07207 -0.27539,-0.101563 -0.28091,-0.08848 -0.57828,-0.136718 -0.88672,-0.136718 z"
           transform="matrix(0.26458334,0,0,0.26458334,0,280.06666)" />
        <path
           id="path41027"
           style="color:#000000;fill:#349951;fill-opacity:1;stroke-width:3.00426;stroke-linecap:round;stroke-linejoin:round;-inkscape-stroke:none"
           d="m -174.98633,-78.253906 v 25.966797 h 1.00195 c 0.10282,0 0.20442,-0.0053 0.30469,-0.01563 0.10028,-0.0103 0.19966,-0.02484 0.29688,-0.04492 1.06936,-0.220863 1.93853,-1.019215 2.26172,-2.048828 0.0294,-0.0936 0.0541,-0.187969 0.0742,-0.285157 0.0201,-0.09719 0.0346,-0.196616 0.0449,-0.296875 0.0103,-0.100258 0.0156,-0.201875 0.0156,-0.304687 v -22.333985 l -0.7539,-0.144531 c -1.06477,-0.266803 -2.15156,-0.429471 -3.2461,-0.492187 z"
           transform="matrix(0.26458334,0,0,0.26458334,0,280.06666)" />
        <path
           id="path42206"
           style="color:#000000;fill:#a8c2e1;fill-opacity:1;stroke-width:3.00426;stroke-linecap:round;stroke-linejoin:round;-inkscape-stroke:none"
           d="m -174.98633,-58.289062 v 6.001953 h 1.00195 c 0.10282,0 0.20442,-0.0053 0.30469,-0.01563 0.10028,-0.0103 0.19966,-0.02484 0.29688,-0.04492 1.06936,-0.220863 1.93853,-1.019215 2.26172,-2.048828 0.0294,-0.0936 0.0541,-0.187969 0.0742,-0.285157 0.0201,-0.09719 0.0346,-0.196616 0.0449,-0.296875 0.0103,-0.100258 0.0156,-0.201875 0.0156,-0.304687 v -3.005859 z"
           transform="matrix(0.26458334,0,0,0.26458334,0,280.06666)" />
      </g>
      <g
         id="g49274"
         style="stroke-width:0.794878">
        <path
           style="color:#000000;fill:#50b86b;stroke-width:0.794878;stroke-linecap:round;stroke-linejoin:round;-inkscape-stroke:none"
           d="m -59.316406,255.08789 a 0.26460996,0.26460996 0 0 0 -0.320313,0.33789 c 0,0 0.188292,0.57617 0.47461,1.21094 0.143158,0.31738 0.311012,0.65079 0.498047,0.9414 0.187034,0.29062 0.385561,0.54189 0.644531,0.69141 0.493749,0.28506 1.070138,0.16377 1.509765,0.01 0.439628,-0.154 0.773438,-0.36719 0.773438,-0.36719 a 0.26460996,0.26460996 0 0 0 0.123047,-0.21094 c 0,0 0.02029,-0.40181 -0.0625,-0.86523 -0.08279,-0.46343 -0.261554,-1.03025 -0.757813,-1.31641 -0.442949,-0.2554 -0.920673,-0.27907 -1.398437,-0.28906 -0.477765,-0.01 -0.966036,-0.004 -1.484375,-0.14258 z"
           id="path131837" />
        <path
           style="color:#000000;fill:#26783f;stroke-width:0.794878;stroke-linecap:round;stroke-linejoin:round;-inkscape-stroke:none"
           d="m -57.96875,256.16797 a 0.2645835,0.2645835 0 0 0 -0.373047,0.0234 0.2645835,0.2645835 0 0 0 0.02344,0.37304 c 0.589812,0.5182 1.421091,1.08864 2.294922,1.34961 a 0.2645835,0.2645835 0 0 0 0.328125,-0.17773 0.2645835,0.2645835 0 0 0 -0.177735,-0.32813 c -0.755666,-0.22568 -1.548004,-0.75903 -2.095703,-1.24023 z"
           id="path131843" />
        <path
           id="path14061"
           style="fill:#a8c2e1;fill-opacity:1;stroke-width:3.00426;stroke-linecap:round;stroke-linejoin:round"
           d="m -201.98242,-58.289062 v 3.005859 c 0,1.645001 1.3511,2.996094 2.99609,2.996094 h 1.30078 c 1.42188,-1.367668 2.52951,-3.024791 3.43946,-4.783203 0.20601,-0.398113 0.40033,-0.805549 0.58789,-1.21875 z"
           transform="matrix(0.26458334,0,0,0.26458334,0,280.06666)" />
        <path
           style="color:#000000;fill:#dc1c4b;stroke-width:0.794878;stroke-linecap:round;stroke-linejoin:round;-inkscape-stroke:none"
           d="m -57.117187,258.64648 c -0.723716,0 -1.411581,0.18792 -1.917969,0.66407 -0.506389,0.47615 -0.802735,1.22195 -0.802735,2.24609 0,1.02416 0.281489,2.157 0.748047,3.05859 0.466558,0.9016 1.134257,1.61719 1.972657,1.61719 0.443625,0 0.71188,-0.0504 0.949218,-0.1582 0.200174,-0.0909 0.400078,-0.22004 0.673828,-0.36719 l 0.345704,0.20313 -0.0039,-0.004 c 0.340891,0.21035 0.718718,0.32568 1.105469,0.32617 0.8384,0 1.506098,-0.71559 1.972656,-1.61719 0.466558,-0.90159 0.748047,-2.03443 0.748047,-3.05859 0,-1.02414 -0.296346,-1.76994 -0.802734,-2.24609 -0.506389,-0.47615 -1.194254,-0.66407 -1.917969,-0.66407 -0.338359,4.8e-4 -0.660721,0.12218 -0.966797,0.28516 l -1.234375,-0.0645 0.109375,0.0312 c -0.3065,-0.16328 -0.639416,-0.25196 -0.978515,-0.25196 z"
           id="path131855" />
        <path
           id="path10539"
           style="color:#000000;fill:#26783f;fill-opacity:1;stroke-width:0.794878;stroke-linecap:round;stroke-linejoin:round;-inkscape-stroke:none"
           d="m -59.367437,255.07956 a 0.26460996,0.26460996 0 0 0 -0.269235,0.34623 c 0,0 0.03265,0.0997 0.0894,0.25683 0.409001,0.0714 0.800873,0.0689 1.185976,0.077 0.477764,0.01 0.955413,0.034 1.398363,0.28939 0.49626,0.28616 0.675304,0.85277 0.758095,1.3162 0.05797,0.32447 0.06483,0.61545 0.06408,0.76274 0.24424,-0.11395 0.404628,-0.21549 0.404628,-0.21549 a 0.26460996,0.26460996 0 0 0 0.122989,-0.21084 c 0,0 0.02027,-0.40216 -0.06253,-0.86558 -0.08279,-0.46343 -0.261834,-1.03004 -0.758094,-1.3162 -0.44295,-0.2554 -0.9206,-0.2794 -1.398363,-0.28939 -0.477766,-0.01 -0.965809,-0.004 -1.484149,-0.14211 v -5.3e-4 a 0.26460996,0.26460996 0 0 0 -0.05116,-0.008 z" />
        <path
           style="color:#000000;fill:#bd887f;stroke-width:0.794878;stroke-linecap:round;stroke-linejoin:round;-inkscape-stroke:none"
           d="m -55.054687,256.69531 c -0.290894,0 -0.558147,0.12435 -0.732422,0.375 -0.379758,0.54616 -0.775391,1.56315 -0.775391,2.72266 a 0.26460996,0.26460996 0 0 0 0.263672,0.26367 h 1.177734 a 0.26460996,0.26460996 0 0 0 0.263672,-0.26367 c 0,-1.23848 0.188606,-2.06696 0.398438,-2.42969 0.07214,-0.12472 0.114494,-0.29441 0.0293,-0.45117 -0.0852,-0.15676 -0.260926,-0.2168 -0.408204,-0.2168 z"
           id="path131861" />
        <path
           style="color:#000000;fill:#b01d47;stroke-width:0.794878;stroke-linecap:round;stroke-linejoin:round;-inkscape-stroke:none"
           d="m -57.40625,259.79102 a 0.2645835,0.2645835 0 0 0 -0.201172,0.0254 0.2645835,0.2645835 0 0 0 -0.09766,0.36132 c 0.286623,0.49919 0.972725,0.76368 1.996094,0.76368 1.023369,0 1.707517,-0.26449 1.99414,-0.76368 a 0.2645835,0.2645835 0 0 0 -0.09766,-0.36132 0.2645835,0.2645835 0 0 0 -0.361328,0.0976 c -0.130814,0.22783 -0.608227,0.49805 -1.535156,0.49805 -0.926929,0 -1.406296,-0.27022 -1.53711,-0.49805 a 0.2645835,0.2645835 0 0 0 -0.160156,-0.12304 z"
           id="path131867" />
        <path
           id="path5269"
           style="color:#000000;fill:#9a605a;fill-opacity:1;stroke-width:0.794878;stroke-linecap:round;stroke-linejoin:round;-inkscape-stroke:none"
           d="m -55.081696,256.69548 c -0.268827,0.007 -0.51553,0.12215 -0.684197,0.34571 0.0592,-0.0113 0.120402,-0.0165 0.182417,-0.0165 h 0.216525 c 0.147277,0 0.323043,0.0598 0.408244,0.21653 0.08519,0.15676 0.04268,0.32641 -0.02946,0.45113 -0.206082,0.35625 -0.391337,1.16228 -0.397907,2.3642 h 0.265099 a 0.26460996,0.26460996 0 0 0 0.263549,-0.26355 c 0,-1.23848 0.188595,-2.06709 0.398425,-2.42982 0.07214,-0.12472 0.11465,-0.29438 0.02946,-0.45114 -0.0852,-0.15676 -0.260967,-0.21652 -0.408245,-0.21652 h -0.216524 c -0.0091,0 -0.01835,-2.5e-4 -0.02739,0 z" />
      </g>
    </g>
  </g>
</svg>
